<mxfile host="app.diagrams.net" modified="2023-05-06T15:22:26.381Z" agent="Mozilla/5.0 (Windows NT 10.0; Win64; x64) AppleWebKit/537.36 (KHTML, like Gecko) Chrome/112.0.0.0 Safari/537.36" etag="h9uF0QMy7uqX5gzCY37x" version="21.2.9" type="device">
  <diagram name="Page-1" id="WUXMmAL18rQ96NvtTXKi">
    <mxGraphModel dx="1050" dy="581" grid="1" gridSize="10" guides="1" tooltips="1" connect="1" arrows="1" fold="1" page="1" pageScale="1" pageWidth="827" pageHeight="1169" math="0" shadow="0">
      <root>
        <mxCell id="0" />
        <mxCell id="1" parent="0" />
        <mxCell id="Pk0IM0q8L8E_uLl81UGS-19" value="button input detected" style="edgeStyle=orthogonalEdgeStyle;rounded=0;orthogonalLoop=1;jettySize=auto;html=1;exitX=0.5;exitY=0;exitDx=0;exitDy=0;entryX=0.5;entryY=1;entryDx=0;entryDy=0;" edge="1" parent="1" source="Pk0IM0q8L8E_uLl81UGS-1" target="Pk0IM0q8L8E_uLl81UGS-7">
          <mxGeometry relative="1" as="geometry" />
        </mxCell>
        <mxCell id="Pk0IM0q8L8E_uLl81UGS-1" value="neutral/waiting" style="ellipse;whiteSpace=wrap;html=1;aspect=fixed;" vertex="1" parent="1">
          <mxGeometry x="360" y="210" width="90" height="90" as="geometry" />
        </mxCell>
        <mxCell id="Pk0IM0q8L8E_uLl81UGS-2" value="received data over serial" style="ellipse;whiteSpace=wrap;html=1;aspect=fixed;" vertex="1" parent="1">
          <mxGeometry x="360" y="350" width="90" height="90" as="geometry" />
        </mxCell>
        <mxCell id="Pk0IM0q8L8E_uLl81UGS-3" value="data invalid" style="ellipse;whiteSpace=wrap;html=1;aspect=fixed;" vertex="1" parent="1">
          <mxGeometry x="590" y="350" width="90" height="90" as="geometry" />
        </mxCell>
        <mxCell id="Pk0IM0q8L8E_uLl81UGS-17" value="data added/changed in storage" style="edgeStyle=orthogonalEdgeStyle;rounded=0;orthogonalLoop=1;jettySize=auto;html=1;exitX=0.5;exitY=0;exitDx=0;exitDy=0;entryX=0.5;entryY=1;entryDx=0;entryDy=0;" edge="1" parent="1" source="Pk0IM0q8L8E_uLl81UGS-4" target="Pk0IM0q8L8E_uLl81UGS-6">
          <mxGeometry relative="1" as="geometry" />
        </mxCell>
        <mxCell id="Pk0IM0q8L8E_uLl81UGS-4" value="data valid" style="ellipse;whiteSpace=wrap;html=1;aspect=fixed;" vertex="1" parent="1">
          <mxGeometry x="120" y="350" width="90" height="90" as="geometry" />
        </mxCell>
        <mxCell id="Pk0IM0q8L8E_uLl81UGS-18" value="displayed data updated" style="edgeStyle=orthogonalEdgeStyle;rounded=0;orthogonalLoop=1;jettySize=auto;html=1;exitX=1;exitY=0.5;exitDx=0;exitDy=0;entryX=0;entryY=0.5;entryDx=0;entryDy=0;" edge="1" parent="1" source="Pk0IM0q8L8E_uLl81UGS-6" target="Pk0IM0q8L8E_uLl81UGS-1">
          <mxGeometry x="0.0667" y="15" relative="1" as="geometry">
            <mxPoint as="offset" />
          </mxGeometry>
        </mxCell>
        <mxCell id="Pk0IM0q8L8E_uLl81UGS-6" value="data processed" style="ellipse;whiteSpace=wrap;html=1;aspect=fixed;" vertex="1" parent="1">
          <mxGeometry x="120" y="210" width="90" height="90" as="geometry" />
        </mxCell>
        <mxCell id="Pk0IM0q8L8E_uLl81UGS-20" value="select held for 1second" style="edgeStyle=orthogonalEdgeStyle;rounded=0;orthogonalLoop=1;jettySize=auto;html=1;exitX=1;exitY=0.5;exitDx=0;exitDy=0;entryX=0;entryY=0.5;entryDx=0;entryDy=0;" edge="1" parent="1" source="Pk0IM0q8L8E_uLl81UGS-7" target="Pk0IM0q8L8E_uLl81UGS-8">
          <mxGeometry y="15" relative="1" as="geometry">
            <mxPoint as="offset" />
          </mxGeometry>
        </mxCell>
        <mxCell id="Pk0IM0q8L8E_uLl81UGS-22" value="move up/down device list" style="edgeStyle=orthogonalEdgeStyle;rounded=0;orthogonalLoop=1;jettySize=auto;html=1;exitX=0;exitY=0.5;exitDx=0;exitDy=0;entryX=1;entryY=0.5;entryDx=0;entryDy=0;" edge="1" parent="1" source="Pk0IM0q8L8E_uLl81UGS-7" target="Pk0IM0q8L8E_uLl81UGS-9">
          <mxGeometry relative="1" as="geometry" />
        </mxCell>
        <mxCell id="Pk0IM0q8L8E_uLl81UGS-7" value="button input recieved" style="ellipse;whiteSpace=wrap;html=1;aspect=fixed;" vertex="1" parent="1">
          <mxGeometry x="360" y="70" width="90" height="90" as="geometry" />
        </mxCell>
        <mxCell id="Pk0IM0q8L8E_uLl81UGS-21" value="update display" style="edgeStyle=orthogonalEdgeStyle;rounded=0;orthogonalLoop=1;jettySize=auto;html=1;exitX=0;exitY=1;exitDx=0;exitDy=0;entryX=1;entryY=0;entryDx=0;entryDy=0;" edge="1" parent="1" source="Pk0IM0q8L8E_uLl81UGS-8" target="Pk0IM0q8L8E_uLl81UGS-1">
          <mxGeometry relative="1" as="geometry">
            <Array as="points">
              <mxPoint x="603" y="170" />
              <mxPoint x="437" y="170" />
            </Array>
          </mxGeometry>
        </mxCell>
        <mxCell id="Pk0IM0q8L8E_uLl81UGS-8" value="display student id" style="ellipse;whiteSpace=wrap;html=1;aspect=fixed;" vertex="1" parent="1">
          <mxGeometry x="590" y="70" width="90" height="90" as="geometry" />
        </mxCell>
        <mxCell id="Pk0IM0q8L8E_uLl81UGS-23" value="update display" style="edgeStyle=orthogonalEdgeStyle;rounded=0;orthogonalLoop=1;jettySize=auto;html=1;exitX=1;exitY=1;exitDx=0;exitDy=0;entryX=0;entryY=0;entryDx=0;entryDy=0;" edge="1" parent="1" source="Pk0IM0q8L8E_uLl81UGS-9" target="Pk0IM0q8L8E_uLl81UGS-1">
          <mxGeometry relative="1" as="geometry">
            <Array as="points">
              <mxPoint x="197" y="170" />
              <mxPoint x="373" y="170" />
            </Array>
          </mxGeometry>
        </mxCell>
        <mxCell id="Pk0IM0q8L8E_uLl81UGS-9" value="change displayed device" style="ellipse;whiteSpace=wrap;html=1;aspect=fixed;" vertex="1" parent="1">
          <mxGeometry x="120" y="70" width="90" height="90" as="geometry" />
        </mxCell>
        <mxCell id="Pk0IM0q8L8E_uLl81UGS-10" value="serial input detected" style="endArrow=classic;html=1;rounded=0;entryX=0.5;entryY=0;entryDx=0;entryDy=0;exitX=0.5;exitY=1;exitDx=0;exitDy=0;" edge="1" parent="1" source="Pk0IM0q8L8E_uLl81UGS-1" target="Pk0IM0q8L8E_uLl81UGS-2">
          <mxGeometry width="50" height="50" relative="1" as="geometry">
            <mxPoint x="390" y="280" as="sourcePoint" />
            <mxPoint x="440" y="230" as="targetPoint" />
          </mxGeometry>
        </mxCell>
        <mxCell id="Pk0IM0q8L8E_uLl81UGS-11" value="data format invalid" style="endArrow=classic;html=1;rounded=0;entryX=0;entryY=0.5;entryDx=0;entryDy=0;exitX=1;exitY=0.5;exitDx=0;exitDy=0;" edge="1" parent="1" source="Pk0IM0q8L8E_uLl81UGS-2" target="Pk0IM0q8L8E_uLl81UGS-3">
          <mxGeometry y="15" width="50" height="50" relative="1" as="geometry">
            <mxPoint x="390" y="280" as="sourcePoint" />
            <mxPoint x="440" y="230" as="targetPoint" />
            <Array as="points" />
            <mxPoint as="offset" />
          </mxGeometry>
        </mxCell>
        <mxCell id="Pk0IM0q8L8E_uLl81UGS-12" value="" style="endArrow=classic;html=1;rounded=0;exitX=0.5;exitY=0;exitDx=0;exitDy=0;" edge="1" parent="1" source="Pk0IM0q8L8E_uLl81UGS-5">
          <mxGeometry width="50" height="50" relative="1" as="geometry">
            <mxPoint x="590" y="350" as="sourcePoint" />
            <mxPoint x="640" y="300" as="targetPoint" />
          </mxGeometry>
        </mxCell>
        <mxCell id="Pk0IM0q8L8E_uLl81UGS-14" value="perform error check" style="endArrow=classic;html=1;rounded=0;exitX=0.5;exitY=0;exitDx=0;exitDy=0;" edge="1" parent="1" source="Pk0IM0q8L8E_uLl81UGS-3" target="Pk0IM0q8L8E_uLl81UGS-5">
          <mxGeometry width="50" height="50" relative="1" as="geometry">
            <mxPoint x="635" y="350" as="sourcePoint" />
            <mxPoint x="640" y="300" as="targetPoint" />
          </mxGeometry>
        </mxCell>
        <mxCell id="Pk0IM0q8L8E_uLl81UGS-5" value="data ignored/error message" style="ellipse;whiteSpace=wrap;html=1;aspect=fixed;" vertex="1" parent="1">
          <mxGeometry x="590" y="210" width="90" height="90" as="geometry" />
        </mxCell>
        <mxCell id="Pk0IM0q8L8E_uLl81UGS-15" value="error report to serial for debug" style="endArrow=classic;html=1;rounded=0;exitX=0;exitY=0.5;exitDx=0;exitDy=0;entryX=1;entryY=0.5;entryDx=0;entryDy=0;" edge="1" parent="1" source="Pk0IM0q8L8E_uLl81UGS-5" target="Pk0IM0q8L8E_uLl81UGS-1">
          <mxGeometry y="-15" width="50" height="50" relative="1" as="geometry">
            <mxPoint x="390" y="280" as="sourcePoint" />
            <mxPoint x="440" y="230" as="targetPoint" />
            <mxPoint as="offset" />
          </mxGeometry>
        </mxCell>
        <mxCell id="Pk0IM0q8L8E_uLl81UGS-16" value="data format valid" style="endArrow=classic;html=1;rounded=0;entryX=1;entryY=0.5;entryDx=0;entryDy=0;exitX=0;exitY=0.5;exitDx=0;exitDy=0;" edge="1" parent="1" source="Pk0IM0q8L8E_uLl81UGS-2" target="Pk0IM0q8L8E_uLl81UGS-4">
          <mxGeometry x="0.0667" y="-15" width="50" height="50" relative="1" as="geometry">
            <mxPoint x="390" y="280" as="sourcePoint" />
            <mxPoint x="440" y="230" as="targetPoint" />
            <mxPoint as="offset" />
          </mxGeometry>
        </mxCell>
      </root>
    </mxGraphModel>
  </diagram>
</mxfile>
